<svg xmlns="http://www.w3.org/2000/svg" width="1280" height="720" viewBox="0 0 1280 720" role="img" aria-labelledby="title desc">
<title id="title">AWS production deployment path</title>
<desc id="desc">A production-scale AWS version of the take-home architecture</desc>
<defs>
  <filter id="shadow" x="-10%" y="-10%" width="120%" height="130%"><feDropShadow dx="0" dy="10" stdDeviation="10" flood-color="#0f172a" flood-opacity="0.08"/></filter>
  <marker id="arrow" markerWidth="14" markerHeight="14" refX="10" refY="5" orient="auto"><path d="M0,0 L10,5 L0,10 z" fill="#0b75e1"/></marker>
</defs>
<rect width="1280" height="720" rx="32" fill="#f4f7fb"/>
<circle cx="120" cy="110" r="260" fill="#0b75e1" opacity="0.10"/>
<circle cx="1180" cy="45" r="230" fill="#003264" opacity="0.08"/>
<text x="60" y="76" font-size="34" font-weight="800" fill="#061b33">AWS production deployment path</text>
<text x="60" y="112" font-size="17" font-weight="600" fill="#526476">A production-scale AWS version of the take-home architecture</text>
<path d="M 258.0 376.0 C 251.0 376.0, 251.0 376.0, 244.0 376.0" fill="none" stroke="#0b75e1" stroke-width="3" stroke-linecap="round" marker-end="url(#arrow)" opacity="0.9"/><path d="M 452.0 376.0 C 445.0 376.0, 445.0 376.0, 438.0 376.0" fill="none" stroke="#0b75e1" stroke-width="3" stroke-linecap="round" marker-end="url(#arrow)" opacity="0.9"/><path d="M 646.0 376.0 C 639.0 376.0, 639.0 376.0, 632.0 376.0" fill="none" stroke="#0b75e1" stroke-width="3" stroke-linecap="round" marker-end="url(#arrow)" opacity="0.9"/><path d="M 840.0 376.0 C 833.0 376.0, 833.0 376.0, 826.0 376.0" fill="none" stroke="#0b75e1" stroke-width="3" stroke-linecap="round" marker-end="url(#arrow)" opacity="0.9"/><path d="M 1034.0 376.0 C 1027.0 376.0, 1027.0 376.0, 1020.0 376.0" fill="none" stroke="#0b75e1" stroke-width="3" stroke-linecap="round" marker-end="url(#arrow)" opacity="0.9"/>
<g>
  <rect x="60.0" y="330" width="190" height="92" rx="22" fill="#ffffff" stroke="#d7e2ec" stroke-width="2" filter="url(#shadow)"/>
  <rect x="78.0" y="348" width="46" height="46" rx="14" fill="#003264" opacity="0.12"/>
  <circle cx="101.0" cy="371" r="8" fill="#003264"/>
  <text x="138.0" y="366" font-size="18" font-weight="700" fill="#061b33">Route 53</text>
  <text x="138.0" y="391" font-size="13" font-weight="600" fill="#526476">DNS</text>
</g>
<g>
  <rect x="254.0" y="330" width="190" height="92" rx="22" fill="#ffffff" stroke="#d7e2ec" stroke-width="2" filter="url(#shadow)"/>
  <rect x="272.0" y="348" width="46" height="46" rx="14" fill="#0b75e1" opacity="0.12"/>
  <circle cx="295.0" cy="371" r="8" fill="#0b75e1"/>
  <text x="332.0" y="366" font-size="18" font-weight="700" fill="#061b33">CloudFront</text>
  <text x="332.0" y="391" font-size="13" font-weight="600" fill="#526476">CDN + TLS</text>
</g>
<g>
  <rect x="448.0" y="330" width="190" height="92" rx="22" fill="#ffffff" stroke="#d7e2ec" stroke-width="2" filter="url(#shadow)"/>
  <rect x="466.0" y="348" width="46" height="46" rx="14" fill="#b54708" opacity="0.12"/>
  <circle cx="489.0" cy="371" r="8" fill="#b54708"/>
  <text x="526.0" y="366" font-size="18" font-weight="700" fill="#061b33">WAF</text>
  <text x="526.0" y="391" font-size="13" font-weight="600" fill="#526476">Rate limits</text>
</g>
<g>
  <rect x="642.0" y="330" width="190" height="92" rx="22" fill="#ffffff" stroke="#d7e2ec" stroke-width="2" filter="url(#shadow)"/>
  <rect x="660.0" y="348" width="46" height="46" rx="14" fill="#067647" opacity="0.12"/>
  <circle cx="683.0" cy="371" r="8" fill="#067647"/>
  <text x="720.0" y="366" font-size="18" font-weight="700" fill="#061b33">ECS Fargate</text>
  <text x="720.0" y="391" font-size="13" font-weight="600" fill="#526476">Next.js containers</text>
</g>
<g>
  <rect x="836.0" y="330" width="190" height="92" rx="22" fill="#ffffff" stroke="#d7e2ec" stroke-width="2" filter="url(#shadow)"/>
  <rect x="854.0" y="348" width="46" height="46" rx="14" fill="#003264" opacity="0.12"/>
  <circle cx="877.0" cy="371" r="8" fill="#003264"/>
  <text x="914.0" y="366" font-size="18" font-weight="700" fill="#061b33">RDS Postgres</text>
  <text x="914.0" y="391" font-size="13" font-weight="600" fill="#526476">Multi-AZ + pgvector</text>
</g>
<g>
  <rect x="1030.0" y="330" width="190" height="92" rx="22" fill="#ffffff" stroke="#d7e2ec" stroke-width="2" filter="url(#shadow)"/>
  <rect x="1048.0" y="348" width="46" height="46" rx="14" fill="#0b75e1" opacity="0.12"/>
  <circle cx="1071.0" cy="371" r="8" fill="#0b75e1"/>
  <text x="1108.0" y="366" font-size="18" font-weight="700" fill="#061b33">CloudWatch</text>
  <text x="1108.0" y="391" font-size="13" font-weight="600" fill="#526476">Logs + metrics</text>
</g>
<text x="60" y="670" font-size="13" font-weight="700" fill="#526476">AMP CSR Command Center · project documentation diagram</text>
</svg>