<svg xmlns="http://www.w3.org/2000/svg" width="1280" height="720" viewBox="0 0 1280 720" role="img" aria-labelledby="title desc">
<title id="title">CSR Docs semantic search</title>
<desc id="desc">Markdown playbooks become vector-searchable support guidance</desc>
<defs>
  <filter id="shadow" x="-10%" y="-10%" width="120%" height="130%"><feDropShadow dx="0" dy="10" stdDeviation="10" flood-color="#0f172a" flood-opacity="0.08"/></filter>
  <marker id="arrow" markerWidth="14" markerHeight="14" refX="10" refY="5" orient="auto"><path d="M0,0 L10,5 L0,10 z" fill="#0b75e1"/></marker>
</defs>
<rect width="1280" height="720" rx="32" fill="#f4f7fb"/>
<circle cx="120" cy="110" r="260" fill="#0b75e1" opacity="0.10"/>
<circle cx="1180" cy="45" r="230" fill="#003264" opacity="0.08"/>
<text x="60" y="76" font-size="34" font-weight="800" fill="#061b33">CSR Docs semantic search</text>
<text x="60" y="112" font-size="17" font-weight="600" fill="#526476">Markdown playbooks become vector-searchable support guidance</text>
<path d="M 278.0 376.0 C 282.75 376.0, 282.75 376.0, 287.5 376.0" fill="none" stroke="#0b75e1" stroke-width="3" stroke-linecap="round" marker-end="url(#arrow)" opacity="0.9"/><path d="M 515.5 376.0 C 520.25 376.0, 520.25 376.0, 525.0 376.0" fill="none" stroke="#0b75e1" stroke-width="3" stroke-linecap="round" marker-end="url(#arrow)" opacity="0.9"/><path d="M 753.0 376.0 C 757.75 376.0, 757.75 376.0, 762.5 376.0" fill="none" stroke="#0b75e1" stroke-width="3" stroke-linecap="round" marker-end="url(#arrow)" opacity="0.9"/><path d="M 990.5 376.0 C 995.25 376.0, 995.25 376.0, 1000.0 376.0" fill="none" stroke="#0b75e1" stroke-width="3" stroke-linecap="round" marker-end="url(#arrow)" opacity="0.9"/>
<g>
  <rect x="60.0" y="330" width="210" height="92" rx="22" fill="#ffffff" stroke="#d7e2ec" stroke-width="2" filter="url(#shadow)"/>
  <rect x="78.0" y="348" width="46" height="46" rx="14" fill="#003264" opacity="0.12"/>
  <circle cx="101.0" cy="371" r="8" fill="#003264"/>
  <text x="138.0" y="366" font-size="18" font-weight="700" fill="#061b33">Markdown docs</text>
  <text x="138.0" y="391" font-size="13" font-weight="600" fill="#526476">docs/csr/*.md</text>
</g>
<g>
  <rect x="297.5" y="330" width="210" height="92" rx="22" fill="#ffffff" stroke="#d7e2ec" stroke-width="2" filter="url(#shadow)"/>
  <rect x="315.5" y="348" width="46" height="46" rx="14" fill="#0b75e1" opacity="0.12"/>
  <circle cx="338.5" cy="371" r="8" fill="#0b75e1"/>
  <text x="375.5" y="366" font-size="18" font-weight="700" fill="#061b33">Chunk docs</text>
  <text x="375.5" y="391" font-size="13" font-weight="600" fill="#526476">Section chunks</text>
</g>
<g>
  <rect x="535.0" y="330" width="210" height="92" rx="22" fill="#ffffff" stroke="#d7e2ec" stroke-width="2" filter="url(#shadow)"/>
  <rect x="553.0" y="348" width="46" height="46" rx="14" fill="#067647" opacity="0.12"/>
  <circle cx="576.0" cy="371" r="8" fill="#067647"/>
  <text x="613.0" y="366" font-size="18" font-weight="700" fill="#061b33">MiniLM embeddings</text>
  <text x="613.0" y="391" font-size="13" font-weight="600" fill="#526476">384 dimensions</text>
</g>
<g>
  <rect x="772.5" y="330" width="210" height="92" rx="22" fill="#ffffff" stroke="#d7e2ec" stroke-width="2" filter="url(#shadow)"/>
  <rect x="790.5" y="348" width="46" height="46" rx="14" fill="#b54708" opacity="0.12"/>
  <circle cx="813.5" cy="371" r="8" fill="#b54708"/>
  <text x="850.5" y="366" font-size="18" font-weight="700" fill="#061b33">pgvector</text>
  <text x="850.5" y="391" font-size="13" font-weight="600" fill="#526476">HNSW index</text>
</g>
<g>
  <rect x="1010.0" y="330" width="210" height="92" rx="22" fill="#ffffff" stroke="#d7e2ec" stroke-width="2" filter="url(#shadow)"/>
  <rect x="1028.0" y="348" width="46" height="46" rx="14" fill="#003264" opacity="0.12"/>
  <circle cx="1051.0" cy="371" r="8" fill="#003264"/>
  <text x="1088.0" y="366" font-size="18" font-weight="700" fill="#061b33">Docs UI</text>
  <text x="1088.0" y="391" font-size="13" font-weight="600" fill="#526476">Search + article route</text>
</g>
<text x="60" y="670" font-size="13" font-weight="700" fill="#526476">AMP CSR Command Center · project documentation diagram</text>
</svg>