<?xml version="1.0" encoding="UTF-8"?> <svg xmlns="http://www.w3.org/2000/svg" width="96" height="44" viewBox="0 0 96 44" fill="none"><path d="M26.8027 11.4121H12.3008V16.6196H21.533L26.8027 11.4121Z" fill="#0B75E1"></path><path d="M86.7743 17.609C86.7743 14.1899 83.6321 11.4102 79.7705 11.4102H67.0234V32.5871H71.9463V25.749H79.8145C83.6606 25.749 86.7898 22.9796 86.7898 19.5709L86.7743 17.609ZM82.0093 19.1697C82.0093 20.28 81.1112 21.1782 80.0008 21.1782H71.9747V15.7636H80.0008C81.1112 15.7636 82.0093 16.6617 82.0093 17.772V19.1697Z" fill="#003264"></path><path d="M34.9657 11.4108H30.193L8.45703 32.5696H8.4648L8.45703 32.5748H15.6653C17.1328 31.1538 28.1147 20.5136 30.0533 18.6346V32.5851H34.9761L34.9631 11.4082L34.9657 11.4108Z" fill="#003264"></path><path d="M59.0427 11.4102L51.001 21.8045L42.9568 11.4205L38.4766 11.4102V32.5871H43.402V18.6365V18.6262L49.2876 27.3019H52.7119L58.6001 18.6262V18.6365V32.5871H63.5229V11.4102H59.0427Z" fill="#003264"></path></svg> 